<svg width="20" height="20" viewBox="0 0 20 20" fill="none" xmlns="http://www.w3.org/2000/svg">
<path d="M16.1666 12.3797C15.4949 12.2352 14.9635 12.5471 14.493 12.8195C14.0111 13.1001 13.0949 13.8434 12.5697 13.6532C9.88084 12.5461 7.35189 10.1926 6.25714 7.49291C6.0642 6.95651 6.804 6.03445 7.08259 5.54691C7.35292 5.07496 7.65833 4.53856 7.51904 3.86183C7.39316 3.2537 5.76497 1.18192 5.18923 0.615377C4.80952 0.241147 4.42053 0.0353197 4.02123 0.00205471C2.51995 -0.0623962 0.843272 1.94078 0.549208 2.42C-0.187499 3.44186 -0.183372 4.80157 0.56159 6.45026C2.35693 10.8787 9.14723 17.5618 13.5922 19.4246C14.4125 19.8082 15.1626 20.0005 15.8364 20.0005C16.4957 20.0005 17.0828 19.8165 17.5874 19.4517C17.9681 19.2323 20.0534 17.4724 19.9987 15.9308C19.9657 15.5378 19.7604 15.1449 19.391 14.7644C18.8286 14.1833 16.7702 12.5066 16.1666 12.3797Z" fill="#D42530"/>
</svg>
